<svg id="Слой_1" data-name="Слой 1" xmlns="http://www.w3.org/2000/svg" viewBox="0 0 225.17 112.02"><title>лого метро</title><line x1="108.31" y1="4.49" x2="108.31" y2="70.84" style="fill:#fff;stroke:#fff;stroke-miterlimit:10"/><path d="M45.2,39.35a7.56,7.56,0,1,1,7.56-7.55,7.56,7.56,0,0,1-7.56,7.55m0-19.94A12.39,12.39,0,1,0,57.59,31.8,12.41,12.41,0,0,0,45.2,19.41" style="fill:#fff"/><path d="M60.08,46.68h0l0,0h0a21.06,21.06,0,1,0-29.82,0,2.45,2.45,0,0,0,1.73.73A2.42,2.42,0,0,0,34.44,45a2.39,2.39,0,0,0-.76-1.75,16.23,16.23,0,1,1,23,.05l-21,21,3.41,3.42Z" style="fill:#fff"/><path d="M74.94,31.8a29.74,29.74,0,1,0-50.79,21,2.43,2.43,0,0,0,4.15-1.7,2.52,2.52,0,0,0-.74-1.74,24.91,24.91,0,1,1,35.24,0l-21,21,3.42,3.43,21-21a29.66,29.66,0,0,0,8.7-21" style="fill:#fff"/><polygon points="1.5 89.96 3.55 78.75 5.04 78.75 8.04 85.95 11.13 78.75 12.65 78.75 14.51 89.96 12.32 89.96 11.33 83.12 8.3 90.11 7.71 90.11 4.81 83.18 3.69 89.96 1.5 89.96" style="fill:#fff"/><path d="M19.49,88.41a2,2,0,0,0,2-2A2,2,0,0,0,20.93,85a2.05,2.05,0,0,0-1.43-.6,1.89,1.89,0,0,0-1.45.6,2.09,2.09,0,0,0,0,2.87,1.84,1.84,0,0,0,1.44.58m0-5.83a4.5,4.5,0,0,1,1.57.26,4.11,4.11,0,0,1,1.32.75,3.87,3.87,0,0,1,.88,1.24,3.9,3.9,0,0,1,0,3.14,3.89,3.89,0,0,1-.88,1.22,3.77,3.77,0,0,1-1.32.75,4.76,4.76,0,0,1-1.58.25,4.82,4.82,0,0,1-1.59-.25,3.63,3.63,0,0,1-2.19-2,4,4,0,0,1,0-3.14,3.61,3.61,0,0,1,.89-1.24,3.82,3.82,0,0,1,1.3-.75,4.59,4.59,0,0,1,1.6-.26" style="fill:#fff"/><path d="M30.6,83v2a2.66,2.66,0,0,0-.75-.46,2.37,2.37,0,0,0-.9-.17,1.9,1.9,0,0,0-1.5.6,2,2,0,0,0-.52,1.42,1.92,1.92,0,0,0,.59,1.46,2.05,2.05,0,0,0,1.49.57,2.2,2.2,0,0,0,.84-.16,2.3,2.3,0,0,0,.75-.47v2a4.32,4.32,0,0,1-.89.32,3.83,3.83,0,0,1-1,.12,4.62,4.62,0,0,1-1.54-.28A3.61,3.61,0,0,1,26,89.15a3.42,3.42,0,0,1-.84-1.2,3.85,3.85,0,0,1-.3-1.54,4.19,4.19,0,0,1,.33-1.65,3.65,3.65,0,0,1,.91-1.26,3.82,3.82,0,0,1,1.19-.69,4.37,4.37,0,0,1,1.4-.23,4.6,4.6,0,0,1,1,.11,3.87,3.87,0,0,1,.92.32" style="fill:#fff"/><polygon points="32.39 82.81 34.41 82.81 34.41 85.58 37.09 82.81 39.6 82.81 36.36 86 39.77 89.96 37.19 89.96 34.71 87.01 34.41 87.3 34.41 89.96 32.39 89.96 32.39 82.81" style="fill:#fff"/><path d="M43.87,88.41a2,2,0,0,0,2-2A2,2,0,0,0,45.3,85a2.05,2.05,0,0,0-1.43-.6,1.91,1.91,0,0,0-1.45.6,2.09,2.09,0,0,0,0,2.87,1.86,1.86,0,0,0,1.45.58m0-5.83a4.6,4.6,0,0,1,1.58.26,3.52,3.52,0,0,1,2.19,2,3.9,3.9,0,0,1,0,3.14,3.94,3.94,0,0,1-.88,1.22,3.73,3.73,0,0,1-1.31.75,5.18,5.18,0,0,1-3.18,0,3.58,3.58,0,0,1-2.18-2,3.9,3.9,0,0,1,0-3.14A3.59,3.59,0,0,1,41,83.59a3.92,3.92,0,0,1,1.3-.75,4.59,4.59,0,0,1,1.6-.26" style="fill:#fff"/><path d="M51.42,88.38h.95a1.75,1.75,0,0,0,.43,0,.79.79,0,0,0,.31-.13A.62.62,0,0,0,53.3,88a.72.72,0,0,0,.07-.33.53.53,0,0,0-.07-.28.62.62,0,0,0-.19-.23.76.76,0,0,0-.29-.11,2.23,2.23,0,0,0-.41-.06h-1Zm0-2.73h.93a1.43,1.43,0,0,0,.29,0,.7.7,0,0,0,.23-.1.45.45,0,0,0,.2-.21.54.54,0,0,0,.07-.29.73.73,0,0,0-.23-.51.58.58,0,0,0-.21-.07,2.44,2.44,0,0,0-.38,0h-.9Zm-2-2.84h3.16a4.51,4.51,0,0,1,1,.1,2.15,2.15,0,0,1,.7.33,2,2,0,0,1,.5.61,1.66,1.66,0,0,1,.19.8,1.61,1.61,0,0,1-.26.87,1.7,1.7,0,0,1-.73.59,4.84,4.84,0,0,1,.49.18,1.74,1.74,0,0,1,.45.29,1.62,1.62,0,0,1,.4.6,2.21,2.21,0,0,1,.15.73,2,2,0,0,1-.21.93,2.2,2.2,0,0,1-.55.66,1.9,1.9,0,0,1-.73.35,3.6,3.6,0,0,1-.88.11H49.4Z" style="fill:#fff"/><path d="M62.31,83v2a2.66,2.66,0,0,0-.75-.46,2.38,2.38,0,0,0-.91-.17,1.91,1.91,0,0,0-1.49.6,2.16,2.16,0,0,0,.06,2.88,2.08,2.08,0,0,0,1.5.57,2.2,2.2,0,0,0,.84-.16,2.3,2.3,0,0,0,.75-.47v2a4.12,4.12,0,0,1-.89.32,3.83,3.83,0,0,1-1,.12,4.94,4.94,0,0,1-1.54-.28,3.61,3.61,0,0,1-1.23-.76,3.42,3.42,0,0,1-.84-1.2,3.85,3.85,0,0,1-.3-1.54,4.19,4.19,0,0,1,.33-1.65,3.52,3.52,0,0,1,.91-1.25,3.77,3.77,0,0,1,1.19-.7,4.36,4.36,0,0,1,1.39-.23,4.69,4.69,0,0,1,1,.11,3.87,3.87,0,0,1,.92.32" style="fill:#fff"/><polygon points="63.99 82.81 66 82.81 66 85.58 68.69 82.81 71.2 82.81 67.96 86 71.37 89.96 68.78 89.96 66.31 87 66 87.3 66 89.96 63.99 89.96 63.99 82.81" style="fill:#fff"/><polygon points="72.37 82.81 74.39 82.81 74.39 87.22 77.7 82.81 79.72 82.81 79.72 89.96 77.7 89.96 77.7 85.55 74.39 89.96 72.37 89.96 72.37 82.81" style="fill:#fff"/><path d="M86.81,79.23l1.32.63a2.37,2.37,0,0,1-1,1.28,3.15,3.15,0,0,1-1.67.42,3.4,3.4,0,0,1-1.69-.43,2.29,2.29,0,0,1-1-1.27L84,79.23a1.16,1.16,0,0,0,.47.75,1.51,1.51,0,0,0,.92.29,1.45,1.45,0,0,0,.9-.29,1.33,1.33,0,0,0,.49-.75m-5.07,3.58h2v4.41l3.31-4.41h2V90h-2V85.55L83.76,90h-2Z" style="fill:#fff"/><polygon points="15.31 96.81 12.83 96.81 12.82 105.98 10.67 105.98 10.67 96.81 8.19 96.81 8.19 94.96 15.31 94.96 15.31 96.81" style="fill:#fff"/><path d="M19.14,100.38a1.86,1.86,0,0,0-1.43.59,1.9,1.9,0,0,0-.55,1.42,2,2,0,0,0,.55,1.46,2.05,2.05,0,0,0,2.86,0,2,2,0,0,0,.56-1.46,2,2,0,0,0-2-2m-1.78,4.67v4.75h-2v-11h2v.92a2.62,2.62,0,0,1,1-.85,2.88,2.88,0,0,1,1.37-.3,3.32,3.32,0,0,1,2.54,1.09,4.19,4.19,0,0,1,0,5.43,3.3,3.3,0,0,1-2.57,1.09,3.17,3.17,0,0,1-1.29-.29,2.48,2.48,0,0,1-1-.87" style="fill:#fff"/><path d="M28.47,100.38a1.85,1.85,0,0,0-1.42.58,2,2,0,0,0-.56,1.43,2,2,0,0,0,.56,1.45,2,2,0,0,0,2.84,0,2.12,2.12,0,0,0,0-2.88,1.9,1.9,0,0,0-1.43-.58m1.79-.63v-.92h2V106h-2v-.93a2.53,2.53,0,0,1-1,.87,2.71,2.71,0,0,1-1.25.29,3.45,3.45,0,0,1-2.64-1.1,4.14,4.14,0,0,1,0-5.42A3.3,3.3,0,0,1,28,98.6a3,3,0,0,1,1.34.29,2.56,2.56,0,0,1,1,.86" style="fill:#fff"/><polygon points="34.14 105.98 34.14 98.83 36.16 98.83 36.16 101.35 38.97 101.35 38.97 98.83 41 98.83 41 105.98 38.97 105.98 38.97 103.07 36.16 103.07 36.16 105.98 34.14 105.98" style="fill:#fff"/><path d="M48.31,99v2a2.9,2.9,0,0,0-.76-.47,2.36,2.36,0,0,0-.9-.16,1.94,1.94,0,0,0-1.5.59,2,2,0,0,0-.52,1.42,1.94,1.94,0,0,0,.59,1.46,2.07,2.07,0,0,0,1.5.58,2.4,2.4,0,0,0,.83-.16,2.66,2.66,0,0,0,.76-.47v2a4.86,4.86,0,0,1-.9.33,3.83,3.83,0,0,1-1,.12,4.68,4.68,0,0,1-1.54-.29,3.51,3.51,0,0,1-1.22-.76,3.3,3.3,0,0,1-.84-1.19,3.9,3.9,0,0,1-.3-1.55,4,4,0,0,1,.33-1.64,3.52,3.52,0,0,1,.91-1.26A3.47,3.47,0,0,1,45,98.83a4.06,4.06,0,0,1,1.39-.23,4.14,4.14,0,0,1,1,.11,4,4,0,0,1,.92.31" style="fill:#fff"/><polygon points="50.01 98.83 56.8 98.83 56.8 105.98 54.77 105.98 54.77 100.55 52.03 100.54 52.03 105.98 50.01 105.98 50.01 98.83" style="fill:#fff"/><path d="M62.32,104.43a2,2,0,0,0,2-2,2,2,0,0,0-.58-1.43,2,2,0,0,0-1.43-.6,1.94,1.94,0,0,0-1.45.59,2.08,2.08,0,0,0,0,2.88,1.89,1.89,0,0,0,1.45.58m0-5.83a4.74,4.74,0,0,1,1.57.25,4,4,0,0,1,1.32.75,4.28,4.28,0,0,1,.88,1.24,3.92,3.92,0,0,1,0,3.15,4,4,0,0,1-.88,1.21,3.86,3.86,0,0,1-1.32.76,5,5,0,0,1-1.57.25,5.11,5.11,0,0,1-1.6-.25,3.54,3.54,0,0,1-1.3-.76,3.44,3.44,0,0,1-.88-1.21,3.92,3.92,0,0,1,0-3.15,3.64,3.64,0,0,1,.88-1.24,3.82,3.82,0,0,1,1.3-.75,4.84,4.84,0,0,1,1.6-.25" style="fill:#fff"/><path d="M71.64,100.38a1.89,1.89,0,0,0-1.44.59,1.85,1.85,0,0,0-.54,1.42,2,2,0,0,0,.55,1.46,2,2,0,0,0,2.85,0,2,2,0,0,0,.57-1.46,2,2,0,0,0-2-2m-1.79,4.67v4.75h-2v-11h2v.92a2.83,2.83,0,0,1,1-.85,3,3,0,0,1,1.37-.3,3.34,3.34,0,0,1,2.54,1.09,4.23,4.23,0,0,1,0,5.44,3.35,3.35,0,0,1-2.57,1.08,3.22,3.22,0,0,1-1.3-.29,2.54,2.54,0,0,1-1-.87" style="fill:#fff"/><polygon points="82.4 100.55 80.41 100.54 80.41 105.98 78.39 105.98 78.39 100.54 76.4 100.55 76.4 98.83 82.39 98.83 82.4 100.55" style="fill:#fff"/><path d="M166.56,70.55,170,74l21.1-21.1a29.82,29.82,0,1,0-42.2,0,2.43,2.43,0,0,0,4.16-1.7,2.48,2.48,0,0,0-.74-1.75,25,25,0,1,1,35.33,0Z" style="fill:#fff"/><polygon points="184.06 37.7 176.43 18.41 170.01 29.68 163.58 18.41 155.95 37.7 153.71 37.7 153.71 40.6 165.24 40.6 165.24 37.7 163.51 37.7 165.19 32.89 170.01 40.82 174.83 32.89 176.5 37.7 174.78 37.7 174.78 40.6 186.3 40.6 186.3 37.7 184.06 37.7" style="fill:#fff"/><path d="M215.74,106.14h2v-3h2.84v3h2V98.89h-2v2.56h-2.84V98.89h-2ZM209,101.55a1.74,1.74,0,0,1,3.43,0Zm3.43,2.26a1.87,1.87,0,0,1-1.69,1,1.74,1.74,0,0,1-1.46-.69,2.18,2.18,0,0,1-.35-1.22h5.42v-.17a4.31,4.31,0,0,0-.87-2.84,3.42,3.42,0,0,0-2.82-1.19,3.68,3.68,0,0,0-2.73,1,3.84,3.84,0,0,0-1.11,2.84,3.66,3.66,0,0,0,1.14,2.83,3.78,3.78,0,0,0,2.78,1,3.55,3.55,0,0,0,3.56-2.26Zm-6.18-3.18V98.89h-6.06v1.74h2v5.51h2v-5.51Zm-14.43-1.74v7.25h2l3.34-4.47v4.47h2.05V98.89h-2.05l-3.34,4.47V98.89Zm-1.8,0h-5.86v4.27a1.51,1.51,0,0,1-.25.92,1,1,0,0,1-.84.35,1.73,1.73,0,0,1-.32,0v1.74a2.46,2.46,0,0,0,.6.07,2.62,2.62,0,0,0,2-.77,3.12,3.12,0,0,0,.69-2.15v-2.66h2v5.51H190Zm-12,5.68a2.06,2.06,0,1,1,2-2,2,2,0,0,1-2,2m0-5.91a4.17,4.17,0,0,0-2.93,1,3.9,3.9,0,0,0,0,5.67,4.72,4.72,0,0,0,5.86,0,3.9,3.9,0,0,0,0-5.67,4.17,4.17,0,0,0-2.93-1m-12.46.23v7.25h2v-5.51h2.78v5.51h2V98.89Zm-5.59,5.68a2.06,2.06,0,1,1,2-2,2,2,0,0,1-2,2m0-5.91a4.17,4.17,0,0,0-2.93,1,3.9,3.9,0,0,0,0,5.67,4.72,4.72,0,0,0,5.86,0,3.9,3.9,0,0,0,0-5.67,4.16,4.16,0,0,0-2.93-1m-9.34,1.8a2.06,2.06,0,1,1-2,2.05,2,2,0,0,1,2-2.05m-1.8,4.74a2.72,2.72,0,0,0,2.31,1.17,3.61,3.61,0,0,0,3.61-3.86,3.56,3.56,0,0,0-3.56-3.85,2.79,2.79,0,0,0-2.36,1.17v-.94h-2V110h2Zm-3-4.57V98.89h-6.06v1.74h2v5.51h2v-5.51Zm-12,.92a1.74,1.74,0,0,1,3.43,0Zm3.43,2.26a1.86,1.86,0,0,1-1.69,1,1.72,1.72,0,0,1-1.45-.69,2.11,2.11,0,0,1-.36-1.22h5.43v-.17a4.31,4.31,0,0,0-.87-2.84,3.46,3.46,0,0,0-2.83-1.19,3.7,3.7,0,0,0-2.73,1,3.84,3.84,0,0,0-1.11,2.84,3.66,3.66,0,0,0,1.14,2.83,3.78,3.78,0,0,0,2.78,1,3.58,3.58,0,0,0,3.57-2.26Zm-19.93,2.33h2.21l1.13-6.88,2.93,7h.61l3.06-7,1,6.88h2.21l-1.87-11.37h-1.51l-3.16,7.3-3-7.3h-1.51Z" style="fill:#fff"/><path d="M211.58,79.19a1.39,1.39,0,0,1-1.41,1,1.41,1.41,0,0,1-1.41-1l-1.34.64a3.05,3.05,0,0,0,5.49,0Zm-5.13,3.63v7.25h2.05l3.34-4.47v4.47h2V82.82h-2l-3.34,4.47V82.82Zm-9.24,0v7.25h2l3.34-4.47v4.47h2.05V82.82H202.6l-3.34,4.47V82.82Zm-8.23,0v7.25h2V87.38l.3-.31,2.51,3h2.61l-3.44-4,3.28-3.23h-2.55L191,85.63V82.82Zm-1.41.2a4.35,4.35,0,0,0-2-.43,3.73,3.73,0,0,0-3.86,3.88,3.73,3.73,0,0,0,1.15,2.78,4.09,4.09,0,0,0,2.8,1,4.15,4.15,0,0,0,1.87-.45v-2a2.37,2.37,0,0,1-1.6.64,2,2,0,0,1-2.11-2.06,1.94,1.94,0,0,1,2-2,2.35,2.35,0,0,1,1.67.63Zm-10.91,5.44V87h1a1.28,1.28,0,0,1,.71.16.61.61,0,0,1,.26.52.73.73,0,0,1-.26.59,1.26,1.26,0,0,1-.76.18Zm0-2.76V84.43h.9a1,1,0,0,1,.6.12.6.6,0,0,1,.24.52.55.55,0,0,1-.27.5,1.14,1.14,0,0,1-.53.13Zm-2-2.88v7.25h3.73A2.7,2.7,0,0,0,180,89.6a1.93,1.93,0,0,0,.77-1.61,1.72,1.72,0,0,0-.55-1.35,2.13,2.13,0,0,0-.95-.47,1.61,1.61,0,0,0,1-1.49,1.76,1.76,0,0,0-.7-1.42,2.67,2.67,0,0,0-1.73-.44ZM169,88.5a2.05,2.05,0,1,1,2-2,2,2,0,0,1-2,2m0-5.91a4.16,4.16,0,0,0-2.93,1,3.88,3.88,0,0,0,0,5.67,4.7,4.7,0,0,0,5.85,0,3.88,3.88,0,0,0,0-5.67,4.13,4.13,0,0,0-2.92-1m-12,.23v7.25h2V87.38l.3-.31,2.51,3h2.61l-3.45-4,3.29-3.23h-2.55l-2.71,2.81V82.82Zm-1.41.2a4.35,4.35,0,0,0-2-.43,3.73,3.73,0,0,0-3.86,3.88,3.73,3.73,0,0,0,1.15,2.78,4.09,4.09,0,0,0,2.8,1,4.15,4.15,0,0,0,1.87-.45v-2a2.37,2.37,0,0,1-1.61.64,2,2,0,0,1-2.11-2.06,2,2,0,0,1,2.05-2,2.35,2.35,0,0,1,1.67.63Zm-11,5.48a2,2,0,1,1,2-2,2,2,0,0,1-2,2m0-5.91a4.17,4.17,0,0,0-2.93,1,3.9,3.9,0,0,0,0,5.67,4.72,4.72,0,0,0,5.86,0,3.9,3.9,0,0,0,0-5.67,4.16,4.16,0,0,0-2.93-1m-18.48,7.48h2.21l1.14-6.88,2.93,7h.6l3.07-7,1,6.88h2.21L137.36,78.7h-1.51L132.69,86l-3-7.3h-1.51Z" style="fill:#fff"/></svg>