<svg id="EDC_logo" width="92" height="61" viewBox="0 0 92 61" fill="none" xmlns="http://www.w3.org/2000/svg">         
                 <path fill-rule="evenodd" clip-rule="evenodd" d="M52.7511 0.125382C51.5942 0.350064 50.916 0.542555 46.9785 1.76404C41.7555 3.38423 35.1756 5.3677 23.3297 8.89271C17.641 10.5855 12.1185 12.2314 11.0574 12.5503C1.30097 15.4822 1.45745 15.4292 0.967848 15.972C0.842017 16.1116 0.706111 16.3351 0.665917 16.4688C0.625617 16.6024 0.581029 24.1733 0.566774 33.2929L0.540729 49.8739L39.6953 49.9005C61.2304 49.9151 81.6835 49.9273 85.1468 49.9275L91.4437 49.928L91.4717 45.4258C91.4979 41.2069 91.4878 40.9201 91.3109 40.8668C91.1004 40.8034 79.1795 37.7093 74.1884 36.4227C70.8886 35.572 70.4568 35.4263 70.3419 35.1244C70.3053 35.0282 70.2753 30.2967 70.2753 24.61C70.2753 16.7123 70.3057 14.24 70.4039 14.141C70.7047 13.8379 71.0901 14.0427 73.5816 15.8292C74.9759 16.829 77.9254 18.9274 80.1361 20.4922C84.9954 23.932 86.4025 24.9327 89.2046 26.9411C90.39 27.7908 91.3908 28.486 91.4286 28.486C91.4665 28.486 91.4973 27.5713 91.4973 26.4533C91.4973 23.9966 91.3839 23.4745 90.7074 22.8158C90.4629 22.5776 89.0574 21.5342 87.5842 20.4969C84.359 18.2261 71.9374 9.37016 66.1797 5.23678C60.9443 1.47833 59.941 0.894592 57.6491 0.273586C56.5927 -0.012667 53.8842 -0.094546 52.7511 0.125382ZM56.3467 5.11212C58.5887 5.50024 60.2688 6.28338 62.8798 8.15731L64.6483 9.42654L64.6754 27.2738L64.7025 45.1211H40.1564H15.6104L15.6382 30.601L15.6662 16.0811L15.9276 15.8007C16.2215 15.4855 15.7945 15.6253 23.7049 13.2535C30.445 11.2325 40.4701 8.21607 45.4394 6.71384C49.3378 5.53534 50.1395 5.32395 51.565 5.09894C52.8321 4.89889 55.1522 4.90526 56.3467 5.11212ZM72.3768 17.9629C72.341 18.0569 72.3125 21.5445 72.3134 25.7134C72.3151 33.8238 72.307 33.7002 72.8508 33.959C73.0567 34.057 90.8856 38.711 91.3365 38.7844C91.4059 38.7958 91.4537 37.4265 91.4718 34.9041L91.5 31.0062L89.8641 29.8351C86.803 27.6436 76.6596 20.4244 74.7889 19.1058C72.9713 17.8247 72.5123 17.6072 72.3768 17.9629ZM24.7961 22.6153C24.756 22.6558 24.7231 25.3057 24.7231 28.504V34.3191H27.9385H31.154V33.3469V32.3747H29.1175H27.0811V30.7544V29.1341H29.0103H30.9396V28.1619V27.1898H29.0103H27.0811V25.8935V24.5973H29.1216H31.162L31.1313 23.5981L31.1004 22.5989L27.9847 22.5703C26.2712 22.5546 24.8363 22.5748 24.7961 22.6153ZM34.4758 25.7032C34.475 28.9891 34.4035 29.8257 34.0402 30.8044C33.7732 31.5235 33.0986 32.2338 32.5914 32.3297L32.2258 32.3988V34.7131V37.0274L33.2708 36.9965L34.3158 36.9656L34.346 35.6423L34.3761 34.3191H37.9098H41.4434V35.6693V37.0196H42.5153H43.5871V34.6972V32.3747H42.9986H42.4102L42.3823 27.4868L42.3545 22.5989L38.4156 22.5706L34.4766 22.5422L34.4758 25.7032ZM45.1625 22.6134C45.1214 22.655 45.0876 25.3057 45.0876 28.504V34.3191H49.2677H53.4478V35.6693V37.0196H54.5196H55.5914V34.6972V32.3747H54.8947H54.1981V27.4598V22.5449H53.0727H51.9472V27.4598V32.3747H49.6975H47.4478L47.4199 27.4868L47.392 22.5989L46.3147 22.5684C45.7223 22.5516 45.2038 22.5718 45.1625 22.6134ZM40.0501 28.486V32.3747H37.727H35.4039L35.6251 32.1317C35.9743 31.7481 36.3751 30.8577 36.5148 30.156C36.5852 29.8019 36.6681 28.4063 36.6988 27.0547L36.7548 24.5973H38.4024H40.0501V28.486ZM0.571597 51.9982C0.532262 52.0379 0.5 52.4998 0.5 53.0247V53.9789L45.9719 53.9518L91.4437 53.9247V52.9525V51.9803L46.0435 51.9532C21.0733 51.9383 0.610933 51.9585 0.571597 51.9982ZM21.5362 54.9587C21.2324 55.0753 21.3171 55.3339 21.7297 55.549C22.2831 55.8374 23.1032 55.7015 23.3246 55.2847C23.4191 55.1065 23.3996 55.0464 23.215 54.9468C23.0376 54.8512 22.9509 54.8615 22.8032 54.9963C22.5722 55.207 22.1701 55.2167 21.9448 55.0169C21.8296 54.9147 21.6993 54.8961 21.5362 54.9587ZM70.2231 54.9905C70.0306 55.1324 70.0339 55.1494 70.3049 55.4226C70.7178 55.8387 71.4284 55.8244 71.9081 55.3904L72.2582 55.0737L71.9902 54.9702C71.7945 54.8947 71.6766 54.9072 71.553 55.0169C71.33 55.2147 70.8715 55.2083 70.7041 55.0049C70.5397 54.8053 70.4769 54.8034 70.2231 54.9905ZM9.32084 57.3796L8.27068 58.728L8.24056 57.4336L8.21044 56.1391H7.83863H7.46681V58.1915C7.46681 60.8749 7.46221 60.8742 9.29673 58.5203L10.0928 57.4989L10.1229 58.8174L10.153 60.1358H10.5248H10.8966V58.0835V56.0311H10.6338C10.4249 56.0311 10.1554 56.3079 9.32084 57.3796ZM22.5057 57.3831L21.454 58.7349L21.4239 57.4371L21.3938 56.1391H21.022H20.6502V58.1915C20.6502 60.1465 20.6599 60.2439 20.8569 60.2439C21.1194 60.2439 21.2028 60.157 22.3376 58.7038L23.2761 57.502L23.3062 58.8189L23.3364 60.1358H23.7082H24.08V58.0835V56.0311H23.8187C23.6117 56.0311 23.3388 56.312 22.5057 57.3831ZM32.2577 57.3796L31.2076 58.728L31.1775 57.4336L31.1473 56.1391H30.7755H30.4037V58.1915C30.4037 60.8749 30.3991 60.8742 32.2336 58.5203L33.0297 57.4989L33.0598 58.8174L33.0899 60.1358H33.4617H33.8335V58.0835V56.0311H33.5707C33.3618 56.0311 33.0923 56.3079 32.2577 57.3796ZM35.896 56.1229C35.5111 56.2346 34.9531 56.7376 34.7608 57.1462C34.5598 57.573 34.5282 58.4612 34.6978 58.9136C34.9723 59.6458 35.7166 60.1477 36.551 60.1633C37.414 60.1794 37.5849 60.0866 37.5849 59.6019V59.1904L37.118 59.3596C36.7062 59.5089 36.6031 59.5105 36.2452 59.3732C35.7587 59.1866 35.458 58.8111 35.3731 58.2842C35.2927 57.7844 35.5802 57.1561 35.9863 56.9445C36.3813 56.7386 37.0472 56.7439 37.3466 56.9554C37.5811 57.1209 37.5849 57.1167 37.5849 56.6827C37.5849 56.3088 37.5431 56.2257 37.31 56.1364C37.007 56.0203 36.2734 56.0133 35.896 56.1229ZM58.6461 56.1848C57.1836 56.8454 57.0385 59.0511 58.404 59.8641C58.8716 60.1424 59.4782 60.2347 60.043 60.1133L60.5218 60.0103V59.5162C60.5218 59.0528 60.5101 59.0327 60.3342 59.1925C59.6085 59.8516 58.271 59.1939 58.271 58.1779C58.271 57.6775 58.492 57.1946 58.8301 56.9558C59.1342 56.7411 59.7973 56.7393 60.2056 56.9521L60.5218 57.1168V56.6793C60.5218 56.309 60.4796 56.2256 60.2469 56.1364C59.8591 55.9879 59.0264 56.013 58.6461 56.1848ZM66.8449 57.3928L65.7737 58.7546V57.4468V56.1391H65.3986H65.0234V58.199V60.2589L65.2613 60.2244C65.4162 60.2018 65.8733 59.7199 66.5742 58.8396L67.6494 57.4894L67.6795 58.8126L67.7096 60.1358H68.0814H68.4532V58.0835V56.0311H68.1846C67.9688 56.0311 67.7055 56.2985 66.8449 57.3928ZM71.2404 57.3967L70.1681 58.7623V57.4507V56.1391H69.793H69.4179V58.199V60.2589L69.6557 60.2244C69.8107 60.2018 70.2677 59.7199 70.9687 58.8396L72.0438 57.4894L72.0739 58.8126L72.1041 60.1358H72.4759H72.8477V58.0835V56.0311H72.5802C72.3657 56.0311 72.1005 56.3015 71.2404 57.3967ZM0.5 58.1375V60.1358H1.63216H2.76443L2.73077 59.7848C2.69723 59.4337 2.69723 59.4337 2.02734 59.4015L1.35745 59.3694V58.8344V58.2995H2.00054H2.64364V57.9754V57.6514H2.00054H1.35745V57.2193V56.7872H2.05414H2.75082V56.4632V56.1391H1.62541H0.5V58.1375ZM3.82263 57.3308C3.82263 58.636 3.65993 59.2501 3.28812 59.348C3.09648 59.3985 3.07236 59.494 3.07236 60.2025V61H3.4475C3.81374 61 3.82263 60.9897 3.82263 60.5679V60.1358H5.00163H6.18063V60.5679C6.18063 60.9897 6.18953 61 6.55577 61H6.93091V60.2337C6.93091 59.5584 6.9055 59.4608 6.71654 59.411C6.51429 59.3577 6.50218 59.2637 6.50218 57.7468V56.1391H5.16241H3.82263V57.3308ZM11.7784 58.1105L11.8077 60.0818L12.2096 60.1153L12.6115 60.1489V59.2242V58.2995H13.4154H14.2193V59.2177V60.1358H14.5944H14.9695V58.1375V56.1391H14.5944H14.2193V56.8952V57.6514H13.4154H12.6115V56.8952V56.1391H12.1803H11.7493L11.7784 58.1105ZM15.9342 58.1507V60.1623L16.8993 60.1158C17.9994 60.0627 18.3825 59.869 18.5498 59.2813C18.8027 58.3924 18.1911 57.6514 17.2045 57.6514H16.6844V56.8952V56.1391H16.3093H15.9342V58.1507ZM18.9596 58.1105L18.9889 60.0818H19.364H19.7391L19.7684 58.1105L19.7975 56.1391H19.364H18.9304L18.9596 58.1105ZM26.7595 57.3308C26.7595 58.636 26.5968 59.2501 26.225 59.348C26.0334 59.3985 26.0093 59.494 26.0093 60.2025V61H26.3844C26.7506 61 26.7595 60.9897 26.7595 60.5679V60.1358H27.9385H29.1175V60.5679C29.1175 60.9897 29.1264 61 29.4927 61H29.8678V60.2337C29.8678 59.5584 29.8424 59.4608 29.6534 59.411C29.4512 59.3577 29.4391 59.2637 29.4391 57.7468V56.1391H28.0993H26.7595V57.3308ZM38.3352 58.1375V60.1358H38.7103H39.0854V58.4615V56.7872H39.8893H40.6932V58.4615V60.1358H41.0683H41.4434V58.1375V56.1391H39.8893H38.3352V58.1375ZM42.3009 58.1413V60.1434L43.3995 60.1126L44.4981 60.0818V59.7578C44.4981 59.4357 44.494 59.4335 43.8282 59.4015L43.1583 59.3694V58.8344V58.2995H43.8014H44.4445V57.9754V57.6514H43.8014H43.1583V57.2193V56.7872H43.855H44.5517V56.4632V56.1391H43.4263H42.3009V58.1413ZM44.8732 56.4632C44.8732 56.7692 44.897 56.7872 45.302 56.7872H45.7307V58.4615V60.1358H46.1058H46.481V58.4615V56.7872H46.9633C47.4277 56.7872 47.4456 56.7752 47.4456 56.4632V56.1391H46.1594H44.8732V56.4632ZM47.7672 57.0477C47.7672 57.9296 47.7768 57.9644 48.097 58.2359C48.3763 58.4728 48.5313 58.5155 49.1105 58.5155H49.7942L49.8257 59.2987L49.8572 60.0818L50.2591 60.1153L50.6611 60.1489V58.144V56.1391H50.2323H49.8036V57.0033V57.8674H49.2891C49.0062 57.8674 48.7168 57.8091 48.646 57.7378C48.5712 57.6624 48.5174 57.301 48.5174 56.8736V56.1391H48.1423H47.7672V57.0477ZM51.5185 58.1375V60.1358H52.6507H53.783L53.7493 59.7848C53.7157 59.4337 53.7157 59.4337 53.0459 59.4015L52.376 59.3694V58.8344V58.2995H53.0191H53.6622V57.9754V57.6514H53.0191H52.376V57.2193V56.7872H53.0727H53.7693V56.4632V56.1391H52.6439H51.5185V58.1375ZM54.5196 58.1268V60.1358H54.8947H55.2699V59.3797V58.6236H55.7363C56.9359 58.6236 57.5019 57.4054 56.7254 56.4952C56.484 56.2123 56.4055 56.1907 55.4936 56.1554L54.5196 56.1176V58.1268ZM61.2721 58.1375V60.1358H61.6472H62.0223V59.2717C62.0223 58.7964 62.0612 58.4075 62.1088 58.4075C62.1564 58.4075 62.4168 58.7115 62.6875 59.083C63.3937 60.0524 63.5295 60.1554 64.0502 60.1155L64.4923 60.0818L63.5722 58.9476L62.6521 57.8134L63.5313 56.9763L64.4106 56.1391H63.9205C63.4443 56.1391 63.4107 56.162 62.7264 56.9527L62.0223 57.7663V56.9527V56.1391H61.6472H61.2721V58.1375ZM75.0985 58.1375V60.1358H76.5455H77.9924V60.5679C77.9924 60.976 78.0103 61 78.314 61H78.6355V60.1899C78.6355 59.4518 78.6164 59.3797 78.4211 59.3797C78.2163 59.3797 78.2068 59.3077 78.2068 57.7594V56.1391H77.8316H77.4565V57.7594V59.3797H76.6526H75.8488V57.7594V56.1391H75.4736H75.0985V58.1375ZM79.1957 58.1105L79.225 60.0818L80.3307 60.1127L81.4364 60.1435L81.4025 59.7887L81.3686 59.4337L80.6988 59.4015L80.0289 59.3694V58.8344V58.2995H80.672H81.315V57.9754V57.6514H80.672H80.0289V57.2193V56.7872H80.7255H81.4222V56.4632V56.1391H80.2944H79.1666L79.1957 58.1105ZM82.1725 58.1375V60.1358H82.5476H82.9228V59.2177V58.2995H83.7224H84.5218L84.553 59.1907L84.5841 60.0818H84.9592H85.3344L85.3636 58.1105L85.3928 56.1391H84.9617H84.5305V56.8952V57.6514H83.7266H82.9228V56.8952V56.1391H82.5476H82.1725V58.1375ZM85.8167 56.4632C85.8167 56.7689 85.8408 56.7872 86.2426 56.7872H86.6686L86.6982 58.4345L86.7277 60.0818H87.1029H87.478L87.5076 58.4345L87.5372 56.7872H87.9631C88.3649 56.7872 88.389 56.7689 88.389 56.4632V56.1391H87.1029H85.8167V56.4632ZM88.8421 58.1105L88.8714 60.0818H89.2465H89.6216L89.6534 59.3527L89.685 58.6236H90.0392C90.8988 58.6236 91.3882 58.2029 91.4184 57.4383C91.4555 56.5017 90.9699 56.1391 89.6781 56.1391H88.813L88.8421 58.1105ZM5.75191 58.0835V59.3797H5.0071H4.26229L4.4176 59.0051C4.51203 58.7773 4.57291 58.2693 4.57291 57.7088V56.7872H5.16241H5.75191V58.0835ZM28.6888 58.0835V59.3797H27.944H27.1992L27.3545 59.0051C27.4489 58.7773 27.5098 58.2693 27.5098 57.7088V56.7872H28.0993H28.6888V58.0835ZM56.0661 56.9569C56.439 57.3328 56.1292 57.9754 55.5748 57.9754C55.2766 57.9754 55.2699 57.9623 55.2699 57.3813C55.2699 56.7964 55.2747 56.7872 55.5838 56.7872C55.7564 56.7872 55.9734 56.8636 56.0661 56.9569ZM90.4438 56.966C90.8551 57.341 90.5255 57.9754 89.9193 57.9754C89.6949 57.9754 89.6752 57.9276 89.6752 57.3813C89.6752 56.8095 89.686 56.7872 89.9615 56.7872C90.119 56.7872 90.336 56.8677 90.4438 56.966ZM17.56 58.4345C17.7906 58.6217 17.8511 58.8507 17.7457 59.1367C17.6707 59.3396 17.576 59.3797 17.1702 59.3797H16.6844V58.8396C16.6844 58.3003 16.685 58.2995 17.0391 58.2995C17.2342 58.2995 17.4686 58.3603 17.56 58.4345Z" fill="white"></path>
            </svg>